<!-- icon666.com - MILLIONS OF FREE VECTOR ICONS --><svg xmlns="http://www.w3.org/2000/svg" viewBox="0 0 32 32"><g id="Layer_2" data-name="Layer 2"><path d="M16,10a6,6,0,1,0,6,6A6.006,6.006,0,0,0,16,10Zm0,10a4,4,0,1,1,4-4A4,4,0,0,1,16,20Z" fill="#000000" style="fill: rgb(255, 255, 255);"></path><path d="M30,12H27.939a.956.956,0,0,1-.668-1.614l1.457-1.457a1,1,0,0,0,0-1.414L24.485,3.272a1,1,0,0,0-1.414,0L21.614,4.729a.937.937,0,0,1-1.035.185A.923.923,0,0,1,20,4.061V2a1,1,0,0,0-1-1H13a1,1,0,0,0-1,1V4.061a.956.956,0,0,1-1.614.668L8.929,3.272a1,1,0,0,0-1.414,0L3.272,7.515a1,1,0,0,0,0,1.414l1.457,1.457a.937.937,0,0,1,.185,1.035A.923.923,0,0,1,4.061,12H2a1,1,0,0,0-1,1v6a1,1,0,0,0,1,1H4.061a.956.956,0,0,1,.668,1.614L3.272,23.071a1,1,0,0,0,0,1.414l4.243,4.243a1,1,0,0,0,1.414,0l1.457-1.457a.937.937,0,0,1,1.035-.185.923.923,0,0,1,.579.853V30a1,1,0,0,0,1,1h6a1,1,0,0,0,1-1V27.939a.933.933,0,0,1,.6-.863.92.92,0,0,1,1.01.2l1.457,1.457a1,1,0,0,0,1.414,0l4.243-4.243a1,1,0,0,0,0-1.414l-1.457-1.457a.937.937,0,0,1-.185-1.035A.923.923,0,0,1,27.939,20H30a1,1,0,0,0,1-1V13A1,1,0,0,0,30,12Zm-1,6H27.939a2.956,2.956,0,0,0-2.082,5.028l.749.75-2.828,2.828-.75-.749A2.956,2.956,0,0,0,18,27.939V29H14V27.939a2.956,2.956,0,0,0-5.028-2.082l-.75.749L5.394,23.778l.749-.75A2.956,2.956,0,0,0,4.061,18H3V14H4.061A2.956,2.956,0,0,0,6.143,8.972l-.749-.75L8.222,5.394l.75.749A2.956,2.956,0,0,0,14,4.061V3h4V4.061a2.956,2.956,0,0,0,5.028,2.082l.75-.749,2.828,2.828-.749.75A2.956,2.956,0,0,0,27.939,14H29Z" fill="#000000" style="fill: rgb(255, 255, 255);"></path></g></svg>