<?xml version="1.0" encoding="UTF-8"?>
<!DOCTYPE svg PUBLIC "-//W3C//DTD SVG 1.1//EN" "http://www.w3.org/Graphics/SVG/1.1/DTD/svg11.dtd">
<svg xmlns="http://www.w3.org/2000/svg" version="1.1" width="1024px" height="1024px" style="shape-rendering:geometricPrecision; text-rendering:geometricPrecision; image-rendering:optimizeQuality; fill-rule:evenodd; clip-rule:evenodd" xmlns:xlink="http://www.w3.org/1999/xlink">
<g><path style="opacity:0.114" fill="#111010" d="M 350.5,339.5 C 349.721,342.634 348.055,345.301 345.5,347.5C 342.359,360.366 342.859,373.033 347,385.5C 351.333,390.5 355.667,395.5 360,400.5C 362.646,404.683 362.812,408.849 360.5,413C 340.314,411.718 321.814,416.551 305,427.5C 304.25,426.874 303.416,426.374 302.5,426C 302.475,406.708 302.475,387.208 302.5,367.5C 293.852,366.534 285.186,366.368 276.5,367C 269.098,368.105 264.598,372.272 263,379.5C 262.985,395.652 262.318,411.652 261,427.5C 253.243,422.345 244.743,418.511 235.5,416C 223.669,414.265 211.835,413.098 200,412.5C 199.333,397.167 199.333,381.833 200,366.5C 204.63,335.877 220.797,313.71 248.5,300C 254.435,298.017 260.435,296.35 266.5,295C 298.054,293.936 329.554,293.103 361,292.5C 362.773,307.409 360.44,321.742 354,335.5C 353.34,337.324 352.173,338.657 350.5,339.5 Z"/></g>
<g><path style="opacity:0.996" fill="#fdfaf6" d="M 350.5,339.5 C 348.233,342.271 345.733,344.938 343,347.5C 342.333,358.167 342.333,368.833 343,379.5C 346.259,387.663 351.259,394.663 358,400.5C 359.337,404.026 359.837,407.692 359.5,411.5C 339.688,410.046 321.521,414.713 305,425.5C 304.5,405.503 304.333,385.503 304.5,365.5C 294.161,365.334 283.828,365.5 273.5,366C 267.359,368.141 263.193,372.307 261,378.5C 260.667,394.167 260.333,409.833 260,425.5C 251.239,419.017 241.406,414.851 230.5,413C 220.874,411.756 211.208,411.256 201.5,411.5C 201.333,396.163 201.5,380.83 202,365.5C 208.494,328.006 230.327,305.173 267.5,297C 298.146,295.61 328.813,295.11 359.5,295.5C 360.56,311.049 357.56,325.716 350.5,339.5 Z"/></g>
<g><path style="opacity:0.152" fill="#141313" d="M 765.5,460.5 C 776.838,460.333 788.172,460.5 799.5,461C 800.308,461.308 800.975,461.808 801.5,462.5C 817.647,506.278 833.98,549.944 850.5,593.5C 850,593.833 849.5,594.167 849,594.5C 838.493,594.516 827.993,594.683 817.5,595C 815.877,592.92 814.377,590.754 813,588.5C 811.019,581.719 808.853,575.052 806.5,568.5C 793.933,567.767 781.433,567.433 769,567.5C 766.167,567.667 763.333,567.833 760.5,568C 759.692,568.308 759.025,568.808 758.5,569.5C 756.296,577.686 753.629,585.686 750.5,593.5C 742.825,594.769 735.159,594.769 727.5,593.5C 724.265,594.031 721.098,594.698 718,595.5C 716.627,593.305 716.294,590.971 717,588.5C 718.935,585.629 720.601,582.629 722,579.5C 736.237,539.612 750.737,499.945 765.5,460.5 Z M 781.5,502.5 C 783.29,504.792 784.79,507.459 786,510.5C 788.555,518.607 791.388,526.607 794.5,534.5C 788.349,535.321 782.182,535.988 776,536.5C 773.78,536.455 772.28,535.455 771.5,533.5C 774.99,523.205 778.323,512.872 781.5,502.5 Z"/></g>
<g><path style="opacity:0.996" fill="#fcf9f5" d="M 509.5,579.5 C 509.5,579.167 509.5,578.833 509.5,578.5C 513.83,571.173 517.664,563.506 521,555.5C 535.547,566.353 551.714,570.186 569.5,567C 575.603,563.96 577.769,559.126 576,552.5C 575.215,550.714 574.049,549.214 572.5,548C 561.77,543.585 550.77,539.918 539.5,537C 513.891,528.852 505.391,512.018 514,486.5C 522.729,470.037 536.562,461.537 555.5,461C 572.279,460.483 587.779,464.65 602,473.5C 599.546,482.091 596.213,490.424 592,498.5C 577.503,488.666 562.003,486.499 545.5,492C 539.55,496.746 539.216,501.746 544.5,507C 556.118,512.318 568.118,516.651 580.5,520C 602.138,527.769 610.305,542.936 605,565.5C 600.024,580.474 589.857,589.974 574.5,594C 550.878,597.844 529.211,593.011 509.5,579.5 Z"/></g>
<g><path style="opacity:0.996" fill="#fdf9f6" d="M 765.5,462.5 C 777.081,462.179 788.581,462.512 800,463.5C 815.975,506.428 832.142,549.261 848.5,592C 837.818,592.832 827.151,592.666 816.5,591.5C 813.303,583.243 810.303,574.91 807.5,566.5C 791.177,565.334 774.844,565.167 758.5,566C 754.803,574.592 751.803,583.425 749.5,592.5C 739.161,592.666 728.828,592.5 718.5,592C 734.661,549.017 750.328,505.85 765.5,462.5 Z M 781.5,502.5 C 778.323,512.872 774.99,523.205 771.5,533.5C 772.28,535.455 773.78,536.455 776,536.5C 782.182,535.988 788.349,535.321 794.5,534.5C 791.388,526.607 788.555,518.607 786,510.5C 784.79,507.459 783.29,504.792 781.5,502.5 Z"/></g>
<g><path style="opacity:0.148" fill="#0f0e0e" d="M 796.5,536.5 C 787.225,538.473 777.558,539.14 767.5,538.5C 772.294,524.787 777.294,511.12 782.5,497.5C 787.959,510.21 792.626,523.21 796.5,536.5 Z M 781.5,502.5 C 778.323,512.872 774.99,523.205 771.5,533.5C 772.28,535.455 773.78,536.455 776,536.5C 782.182,535.988 788.349,535.321 794.5,534.5C 791.388,526.607 788.555,518.607 786,510.5C 784.79,507.459 783.29,504.792 781.5,502.5 Z"/></g>
<g><path style="opacity:0.192" fill="#191818" d="M 663.5,593.5 C 678.343,593.829 693.01,593.496 707.5,592.5C 707.5,583.5 707.5,574.5 707.5,565.5C 689.007,564.503 670.341,564.17 651.5,564.5C 651.5,556.5 651.5,548.5 651.5,540.5C 667.833,540.5 684.167,540.5 700.5,540.5C 700.5,531.833 700.5,523.167 700.5,514.5C 683.833,514.5 667.167,514.5 650.5,514.5C 650.5,506.5 650.5,498.5 650.5,490.5C 669.5,490.5 688.5,490.5 707.5,490.5C 707.5,481.5 707.5,472.5 707.5,463.5C 678.833,463.5 650.167,463.5 621.5,463.5C 621.5,506.5 621.5,549.5 621.5,592.5C 630.318,593.493 639.318,593.827 648.5,593.5C 639.343,594.658 630.009,594.824 620.5,594C 619.74,592.559 619.074,591.059 618.5,589.5C 619.328,546.875 619.828,504.208 620,461.5C 649.408,460.723 678.908,460.556 708.5,461C 709.192,470.29 709.859,479.623 710.5,489C 710.18,490.653 709.18,491.653 707.5,492C 704.833,492.167 702.167,492.333 699.5,492.5C 683.852,492.474 668.185,492.474 652.5,492.5C 652.207,498.893 652.54,505.227 653.5,511.5C 669.413,512.028 685.413,512.528 701.5,513C 702.116,514.4 702.449,515.9 702.5,517.5C 702.664,525.599 702.33,533.766 701.5,542C 685.789,542.817 670.122,542.651 654.5,541.5C 653.808,542.025 653.308,542.692 653,543.5C 652.5,549.825 652.334,556.158 652.5,562.5C 655.532,562.505 658.532,562.838 661.5,563.5C 676.39,562.874 691.223,562.207 706,561.5C 707.333,562.167 708.333,563.167 709,564.5C 709.667,573.833 709.667,583.167 709,592.5C 708.101,594.368 706.601,595.368 704.5,595.5C 690.686,594.867 677.019,594.2 663.5,593.5 Z"/></g>
<g><path style="opacity:0.996" fill="#fdfaf6" d="M 651.5,540.5 C 650.507,548.65 650.174,556.983 650.5,565.5C 669.5,565.5 688.5,565.5 707.5,565.5C 707.5,574.5 707.5,583.5 707.5,592.5C 678.833,592.5 650.167,592.5 621.5,592.5C 621.5,549.5 621.5,506.5 621.5,463.5C 650.167,463.5 678.833,463.5 707.5,463.5C 707.5,472.5 707.5,481.5 707.5,490.5C 688.5,490.5 669.5,490.5 650.5,490.5C 650.5,498.5 650.5,506.5 650.5,514.5C 667.167,514.5 683.833,514.5 700.5,514.5C 700.5,523.167 700.5,531.833 700.5,540.5C 684.167,540.5 667.833,540.5 651.5,540.5 Z"/></g>
<g><path style="opacity:0.317" fill="#090909" d="M 432.5,490.5 C 447.504,490.333 462.504,490.5 477.5,491C 479.081,491.707 480.581,492.54 482,493.5C 482.667,518.5 482.667,543.5 482,568.5C 479.287,577.214 473.454,582.381 464.5,584C 442.594,584.827 420.76,584.66 399,583.5C 398.11,562.139 398.443,540.806 400,519.5C 405.404,503.588 416.237,493.922 432.5,490.5 Z"/></g>
<g><path style="opacity:0.996" fill="#fcf8f4" d="M 432.5,492.5 C 447.17,492.333 461.837,492.5 476.5,493C 478.286,493.785 479.786,494.951 481,496.5C 481.667,519.5 481.667,542.5 481,565.5C 479.508,574.011 474.675,579.511 466.5,582C 444.503,582.5 422.503,582.667 400.5,582.5C 400.333,564.164 400.5,545.83 401,527.5C 401.859,514.602 407.692,504.768 418.5,498C 423.159,495.842 427.825,494.009 432.5,492.5 Z"/></g>
<g><path style="opacity:0.111" fill="#131212" d="M 338.5,426.5 C 373.168,426.333 407.835,426.5 442.5,427C 444.049,428.214 445.215,429.714 446,431.5C 446.667,444.167 446.667,456.833 446,469.5C 443.531,471.652 440.698,473.152 437.5,474C 406.698,476.142 388.531,492.309 383,522.5C 382.333,547.833 382.333,573.167 383,598.5C 383.5,599 384,599.5 384.5,600C 408.167,600.333 431.833,600.667 455.5,601C 460.796,602.547 462.962,606.047 462,611.5C 454.67,636.495 438.17,651.328 412.5,656C 372.024,656.601 331.691,656.434 291.5,655.5C 290.796,597.373 290.463,540.373 290.5,484.5C 291.67,452.68 307.67,433.347 338.5,426.5 Z"/></g>
<g><path style="opacity:0.996" fill="#fefaf6" d="M 338.5,428.5 C 372.835,428.333 407.168,428.5 441.5,429C 442.333,429.833 443.167,430.667 444,431.5C 444.667,443.833 444.667,456.167 444,468.5C 443.167,469.333 442.333,470.167 441.5,471C 422.877,471.643 407.044,478.476 394,491.5C 386.943,500.284 382.61,510.284 381,521.5C 380.5,548.831 380.333,576.165 380.5,603.5C 406.509,603.167 432.509,603.5 458.5,604.5C 459.84,605.688 460.507,607.188 460.5,609C 454.66,634.172 438.993,649.172 413.5,654C 373.168,654.5 332.835,654.667 292.5,654.5C 292.022,592.468 292.522,530.468 294,468.5C 301.163,446.498 315.996,433.165 338.5,428.5 Z"/></g>
<g><path style="opacity:0.22" fill="#171716" d="M 857.5,460.5 C 876.17,460.333 894.836,460.5 913.5,461C 926.477,461.486 938.143,465.486 948.5,473C 957.513,484.24 959.679,496.74 955,510.5C 952.196,515.624 949.029,520.458 945.5,525C 962.121,535.864 966.954,550.697 960,569.5C 954.611,580.212 946.111,587.379 934.5,591C 929.594,592.476 924.594,593.476 919.5,594C 898.836,594.5 878.169,594.667 857.5,594.5C 856.505,549.776 856.505,505.109 857.5,460.5 Z M 890.5,489.5 C 892.371,489.859 893.871,490.859 895,492.5C 896.438,491.282 898.105,490.615 900,490.5C 907.555,491.022 915.055,491.855 922.5,493C 928.74,500.641 927.407,506.641 918.5,511C 909.256,511.181 900.089,511.681 891,512.5C 889.866,508.847 889.366,505.014 889.5,501C 889.533,497.085 889.867,493.251 890.5,489.5 Z M 890.5,540.5 C 898.422,541.302 906.422,541.802 914.5,542C 928.441,542.741 932.441,549.241 926.5,561.5C 924.018,562.897 921.352,563.731 918.5,564C 909.118,565.653 899.785,565.986 890.5,565C 889.181,556.833 889.181,548.667 890.5,540.5 Z"/></g>
<g><path style="opacity:0.996" fill="#fdfaf6" d="M 858.5,462.5 C 878.76,463.322 899.094,463.822 919.5,464C 950.133,467.617 960.966,484.117 952,513.5C 948.571,517.971 944.405,521.637 939.5,524.5C 958.469,533.109 964.969,547.442 959,567.5C 953.894,579.264 945.061,586.764 932.5,590C 928.853,590.774 925.186,591.441 921.5,592C 900.503,592.5 879.503,592.667 858.5,592.5C 858.5,549.167 858.5,505.833 858.5,462.5 Z M 890.5,489.5 C 889.867,493.251 889.533,497.085 889.5,501C 889.366,505.014 889.866,508.847 891,512.5C 900.089,511.681 909.256,511.181 918.5,511C 927.407,506.641 928.74,500.641 922.5,493C 915.055,491.855 907.555,491.022 900,490.5C 898.105,490.615 896.438,491.282 895,492.5C 893.871,490.859 892.371,489.859 890.5,489.5 Z M 890.5,540.5 C 889.181,548.667 889.181,556.833 890.5,565C 899.785,565.986 909.118,565.653 918.5,564C 921.352,563.731 924.018,562.897 926.5,561.5C 932.441,549.241 928.441,542.741 914.5,542C 906.422,541.802 898.422,541.302 890.5,540.5 Z"/></g>
<g><path style="opacity:0.263" fill="#080707" d="M 887.5,488.5 C 897.506,488.334 907.506,488.5 917.5,489C 928.407,491.98 931.24,498.48 926,508.5C 923.125,511.463 919.625,513.296 915.5,514C 906.173,514.5 896.839,514.666 887.5,514.5C 887.5,505.833 887.5,497.167 887.5,488.5 Z M 890.5,489.5 C 889.867,493.251 889.533,497.085 889.5,501C 889.366,505.014 889.866,508.847 891,512.5C 900.089,511.681 909.256,511.181 918.5,511C 927.407,506.641 928.74,500.641 922.5,493C 915.055,491.855 907.555,491.022 900,490.5C 898.105,490.615 896.438,491.282 895,492.5C 893.871,490.859 892.371,489.859 890.5,489.5 Z"/></g>
<g><path style="opacity:0.16" fill="#181717" d="M 270.5,466.5 C 271.887,468.877 272.721,471.543 273,474.5C 273.545,485.998 274.045,497.498 274.5,509C 273.434,557.596 273.267,606.096 274,654.5C 271.243,656.027 268.243,656.693 265,656.5C 228.524,656.556 192.024,656.389 155.5,656C 130.008,652.674 113.175,638.841 105,614.5C 102.118,608.901 103.284,604.401 108.5,601C 133.191,600.767 157.691,600.267 182,599.5C 182.92,571.474 182.586,543.474 181,515.5C 174.529,495.695 161.362,482.529 141.5,476C 136.187,474.908 130.853,473.908 125.5,473C 123.413,472.208 121.579,471.041 120,469.5C 118.893,462.91 118.393,456.243 118.5,449.5C 118.373,443.063 118.873,436.73 120,430.5C 121.214,428.951 122.714,427.785 124.5,427C 160.53,426.047 196.53,426.38 232.5,428C 250.001,433.498 262.501,444.664 270,461.5C 270.494,463.134 270.66,464.801 270.5,466.5 Z"/></g>
<g><path style="opacity:0.996" fill="#fefaf6" d="M 270.5,466.5 C 271.478,529.151 271.811,591.817 271.5,654.5C 232.165,654.667 192.832,654.5 153.5,654C 128.02,649.353 112.02,634.519 105.5,609.5C 105.486,607.407 106.152,605.574 107.5,604C 133.165,603.5 158.831,603.333 184.5,603.5C 184.863,574.148 184.363,544.814 183,515.5C 177.423,496.255 165.256,483.089 146.5,476C 139.314,473.696 131.981,472.029 124.5,471C 123.667,470.167 122.833,469.333 122,468.5C 121.333,456.167 121.333,443.833 122,431.5C 122.833,430.667 123.667,429.833 124.5,429C 158.5,428.333 192.5,428.333 226.5,429C 242.463,431.98 254.963,440.147 264,453.5C 266.213,457.925 268.379,462.259 270.5,466.5 Z"/></g>
<g><path style="opacity:0.744" fill="#514f4d" d="M 796.5,536.5 C 797.404,537.209 797.737,538.209 797.5,539.5C 787.319,539.827 777.319,539.494 767.5,538.5C 777.558,539.14 787.225,538.473 796.5,536.5 Z"/></g>
<g><path style="opacity:0.135" fill="#111010" d="M 887.5,539.5 C 898.888,539.117 910.221,539.617 921.5,541C 931.268,544.376 934.101,550.876 930,560.5C 925.507,565.008 920.007,567.175 913.5,567C 904.84,567.5 896.173,567.666 887.5,567.5C 887.5,558.167 887.5,548.833 887.5,539.5 Z M 890.5,540.5 C 889.181,548.667 889.181,556.833 890.5,565C 899.785,565.986 909.118,565.653 918.5,564C 921.352,563.731 924.018,562.897 926.5,561.5C 932.441,549.241 928.441,542.741 914.5,542C 906.422,541.802 898.422,541.302 890.5,540.5 Z"/></g>
<g><path style="opacity:0.745" fill="#504e4c" d="M 651.5,540.5 C 651.5,548.5 651.5,556.5 651.5,564.5C 670.341,564.17 689.007,564.503 707.5,565.5C 688.5,565.5 669.5,565.5 650.5,565.5C 650.174,556.983 650.507,548.65 651.5,540.5 Z"/></g>
<g><path style="opacity:0.232" fill="#080807" d="M 85.5,568.5 C 83.9891,566.524 83.1558,564.191 83,561.5C 82.3333,540.167 82.3333,518.833 83,497.5C 83.7922,495.413 84.9588,493.579 86.5,492C 94.0673,490.865 101.734,490.365 109.5,490.5C 127.837,487.356 143.671,492.023 157,504.5C 161.126,511.199 164.293,518.366 166.5,526C 166.781,545.298 166.447,564.631 165.5,584C 143.833,584.667 122.167,584.667 100.5,584C 91.8976,582.232 86.8976,577.066 85.5,568.5 Z"/></g>
<g><path style="opacity:0.996" fill="#fcf8f4" d="M 85.5,568.5 C 84.895,555.684 84.5617,542.85 84.5,530C 84.3535,518.407 84.8535,506.907 86,495.5C 86.9025,494.299 88.0692,493.465 89.5,493C 103.5,492.333 117.5,492.333 131.5,493C 152.903,497.408 163.737,510.575 164,532.5C 164.5,549.163 164.667,565.83 164.5,582.5C 142.831,582.667 121.164,582.5 99.5,582C 92.9656,579.426 88.2989,574.926 85.5,568.5 Z"/></g>
<g><path style="opacity:0.181" fill="#100f0f" d="M 509.5,579.5 C 529.211,593.011 550.878,597.844 574.5,594C 589.857,589.974 600.024,580.474 605,565.5C 610.305,542.936 602.138,527.769 580.5,520C 568.118,516.651 556.118,512.318 544.5,507C 539.216,501.746 539.55,496.746 545.5,492C 562.003,486.499 577.503,488.666 592,498.5C 596.213,490.424 599.546,482.091 602,473.5C 587.779,464.65 572.279,460.483 555.5,461C 536.562,461.537 522.729,470.037 514,486.5C 505.391,512.018 513.891,528.852 539.5,537C 550.77,539.918 561.77,543.585 572.5,548C 574.049,549.214 575.215,550.714 576,552.5C 577.769,559.126 575.603,563.96 569.5,567C 551.714,570.186 535.547,566.353 521,555.5C 517.664,563.506 513.83,571.173 509.5,578.5C 508.957,578.44 508.624,578.107 508.5,577.5C 512.856,570.282 516.356,562.615 519,554.5C 519.561,553.978 520.228,553.645 521,553.5C 529.862,559.014 539.362,563.18 549.5,566C 555.167,566.667 560.833,566.667 566.5,566C 575.331,561.994 576.664,556.327 570.5,549C 559.99,545.165 549.324,541.831 538.5,539C 513.338,530.174 504.504,513.008 512,487.5C 517.9,473.271 528.4,464.438 543.5,461C 565.645,456.055 585.978,460.055 604.5,473C 601.664,481.67 598.331,490.17 594.5,498.5C 592.579,499.641 590.579,499.808 588.5,499C 583.605,496.52 578.605,494.186 573.5,492C 564.694,489.735 556.028,490.069 547.5,493C 541.992,497.985 542.325,502.652 548.5,507C 560.999,511.501 573.666,515.834 586.5,520C 604.866,529.704 611.7,544.871 607,565.5C 598.489,587.475 582.322,598.141 558.5,597.5C 540.769,596.469 524.436,591.136 509.5,581.5C 508.45,580.571 508.45,579.905 509.5,579.5 Z"/></g>
<g><path style="opacity:0.106" fill="#555251" d="M 621.5,592.5 C 650.167,592.5 678.833,592.5 707.5,592.5C 693.01,593.496 678.343,593.829 663.5,593.5C 658.491,594.725 653.491,594.725 648.5,593.5C 639.318,593.827 630.318,593.493 621.5,592.5 Z"/></g>
</svg>
